<mxfile host="Electron" agent="Mozilla/5.0 (Macintosh; Intel Mac OS X 10_15_7) AppleWebKit/537.36 (KHTML, like Gecko) draw.io/28.2.8 Chrome/140.0.7339.240 Electron/38.4.0 Safari/537.36" version="28.2.8">
  <diagram name="PÃ¡gina-1" id="h0vzA3EYL9tyqP-3UoXr">
    <mxGraphModel dx="1773" dy="603" grid="1" gridSize="10" guides="1" tooltips="1" connect="1" arrows="1" fold="1" page="1" pageScale="1" pageWidth="827" pageHeight="1169" math="0" shadow="0">
      <root>
        <mxCell id="0" />
        <mxCell id="1" parent="0" />
        <mxCell id="unyrx_m22YV3mPMd7Uph-38" value="VPC" style="sketch=0;outlineConnect=0;html=1;whiteSpace=wrap;fontSize=12;fontStyle=0;shape=mxgraph.aws4.group;grIcon=mxgraph.aws4.group_vpc;strokeColor=#666666;fillColor=#f5f5f5;verticalAlign=top;align=left;spacingLeft=30;fontColor=#333333;dashed=0;" parent="1" vertex="1">
          <mxGeometry x="-760" y="429" width="416" height="710" as="geometry" />
        </mxCell>
        <mxCell id="unyrx_m22YV3mPMd7Uph-50" value="AZ-2" style="sketch=0;outlineConnect=0;html=1;whiteSpace=wrap;fontSize=12;fontStyle=0;shape=mxgraph.aws4.group;grIcon=mxgraph.aws4.group_availability_zone;strokeColor=#82b366;fillColor=#d5e8d4;verticalAlign=top;align=left;spacingLeft=30;dashed=1;" parent="1" vertex="1">
          <mxGeometry x="-534" y="499" width="170" height="620" as="geometry" />
        </mxCell>
        <mxCell id="unyrx_m22YV3mPMd7Uph-40" value="AZ-1" style="sketch=0;outlineConnect=0;html=1;whiteSpace=wrap;fontSize=12;fontStyle=0;shape=mxgraph.aws4.group;grIcon=mxgraph.aws4.group_availability_zone;strokeColor=#6c8ebf;fillColor=#dae8fc;verticalAlign=top;align=left;spacingLeft=30;dashed=1;" parent="1" vertex="1">
          <mxGeometry x="-734" y="499" width="180" height="620" as="geometry" />
        </mxCell>
        <mxCell id="unyrx_m22YV3mPMd7Uph-43" value="Subnet Aplicacion (Private)" style="sketch=0;outlineConnect=0;html=1;whiteSpace=wrap;fontSize=12;fontStyle=0;shape=mxgraph.aws4.group;grIcon=mxgraph.aws4.group_subnet;strokeColor=#b85450;fillColor=#f8cecc;verticalAlign=top;align=left;spacingLeft=30;dashed=0;opacity=50;" parent="1" vertex="1">
          <mxGeometry x="-714" y="799" width="330" height="140" as="geometry" />
        </mxCell>
        <mxCell id="unyrx_m22YV3mPMd7Uph-3" value="WAF" style="outlineConnect=0;dashed=0;verticalLabelPosition=bottom;verticalAlign=top;align=center;html=1;shape=mxgraph.aws3.waf;fillColor=#759C3E;gradientColor=none;" parent="1" vertex="1">
          <mxGeometry x="-324" y="530.5" width="76.5" height="93" as="geometry" />
        </mxCell>
        <mxCell id="unyrx_m22YV3mPMd7Uph-64" style="rounded=0;orthogonalLoop=1;jettySize=auto;html=1;dashed=1;fillColor=#f8cecc;strokeColor=#FF0000;strokeWidth=2;" parent="1" source="unyrx_m22YV3mPMd7Uph-9" target="unyrx_m22YV3mPMd7Uph-59" edge="1">
          <mxGeometry relative="1" as="geometry" />
        </mxCell>
        <mxCell id="unyrx_m22YV3mPMd7Uph-9" value="ECS Fargate" style="sketch=0;points=[[0,0,0],[0.25,0,0],[0.5,0,0],[0.75,0,0],[1,0,0],[0,1,0],[0.25,1,0],[0.5,1,0],[0.75,1,0],[1,1,0],[0,0.25,0],[0,0.5,0],[0,0.75,0],[1,0.25,0],[1,0.5,0],[1,0.75,0]];outlineConnect=0;fontColor=#232F3E;fillColor=#ED7100;strokeColor=#ffffff;dashed=0;verticalLabelPosition=bottom;verticalAlign=top;align=center;html=1;fontSize=12;fontStyle=0;aspect=fixed;shape=mxgraph.aws4.resourceIcon;resIcon=mxgraph.aws4.fargate;" parent="1" vertex="1">
          <mxGeometry x="-688" y="830" width="78" height="78" as="geometry" />
        </mxCell>
        <mxCell id="unyrx_m22YV3mPMd7Uph-27" style="edgeStyle=orthogonalEdgeStyle;rounded=0;orthogonalLoop=1;jettySize=auto;html=1;entryX=1;entryY=0.5;entryDx=0;entryDy=0;entryPerimeter=0;strokeWidth=2;" parent="1" source="unyrx_m22YV3mPMd7Uph-26" target="unyrx_m22YV3mPMd7Uph-1" edge="1">
          <mxGeometry relative="1" as="geometry">
            <Array as="points">
              <mxPoint x="-340" y="212" />
              <mxPoint x="-340" y="212" />
            </Array>
          </mxGeometry>
        </mxCell>
        <mxCell id="unyrx_m22YV3mPMd7Uph-30" style="edgeStyle=orthogonalEdgeStyle;rounded=0;orthogonalLoop=1;jettySize=auto;html=1;strokeWidth=2;" parent="1" source="unyrx_m22YV3mPMd7Uph-29" target="unyrx_m22YV3mPMd7Uph-26" edge="1">
          <mxGeometry relative="1" as="geometry" />
        </mxCell>
        <mxCell id="unyrx_m22YV3mPMd7Uph-29" value="Usuarios" style="sketch=0;outlineConnect=0;fontColor=#232F3E;gradientColor=none;fillColor=#232F3D;strokeColor=none;dashed=0;verticalLabelPosition=bottom;verticalAlign=top;align=center;html=1;fontSize=12;fontStyle=0;aspect=fixed;pointerEvents=1;shape=mxgraph.aws4.users;labelBackgroundColor=default;" parent="1" vertex="1">
          <mxGeometry x="-322.5" y="284" width="78" height="78" as="geometry" />
        </mxCell>
        <mxCell id="unyrx_m22YV3mPMd7Uph-47" style="edgeStyle=orthogonalEdgeStyle;rounded=0;orthogonalLoop=1;jettySize=auto;html=1;strokeWidth=2;" parent="1" source="unyrx_m22YV3mPMd7Uph-6" target="unyrx_m22YV3mPMd7Uph-9" edge="1">
          <mxGeometry relative="1" as="geometry" />
        </mxCell>
        <mxCell id="unyrx_m22YV3mPMd7Uph-61" style="edgeStyle=orthogonalEdgeStyle;rounded=0;orthogonalLoop=1;jettySize=auto;html=1;strokeWidth=2;" parent="1" source="unyrx_m22YV3mPMd7Uph-6" target="unyrx_m22YV3mPMd7Uph-60" edge="1">
          <mxGeometry relative="1" as="geometry" />
        </mxCell>
        <mxCell id="unyrx_m22YV3mPMd7Uph-42" value="Subnet Front (Public)" style="sketch=0;outlineConnect=0;html=1;whiteSpace=wrap;fontSize=12;fontStyle=0;shape=mxgraph.aws4.group;grIcon=mxgraph.aws4.group_subnet;strokeColor=#d79b00;fillColor=#ffe6cc;verticalAlign=top;align=left;spacingLeft=30;dashed=0;opacity=50;" parent="1" vertex="1">
          <mxGeometry x="-714" y="530.5" width="330" height="250" as="geometry" />
        </mxCell>
        <mxCell id="unyrx_m22YV3mPMd7Uph-44" value="Subnet Datos (Private)" style="sketch=0;outlineConnect=0;html=1;whiteSpace=wrap;fontSize=12;fontStyle=0;shape=mxgraph.aws4.group;grIcon=mxgraph.aws4.group_subnet;strokeColor=#9673a6;fillColor=#e1d5e7;verticalAlign=top;align=left;spacingLeft=30;dashed=0;opacity=50;" parent="1" vertex="1">
          <mxGeometry x="-714" y="959" width="330" height="140" as="geometry" />
        </mxCell>
        <mxCell id="unyrx_m22YV3mPMd7Uph-32" value="Master" style="sketch=0;outlineConnect=0;fontColor=#232F3E;gradientColor=none;fillColor=#C925D1;strokeColor=none;dashed=0;verticalLabelPosition=bottom;verticalAlign=top;align=center;html=1;fontSize=12;fontStyle=0;aspect=fixed;pointerEvents=1;shape=mxgraph.aws4.aurora_instance;" parent="1" vertex="1">
          <mxGeometry x="-688" y="990" width="78" height="78" as="geometry" />
        </mxCell>
        <mxCell id="unyrx_m22YV3mPMd7Uph-51" style="edgeStyle=orthogonalEdgeStyle;rounded=0;orthogonalLoop=1;jettySize=auto;html=1;strokeWidth=2;" parent="1" source="unyrx_m22YV3mPMd7Uph-4" target="unyrx_m22YV3mPMd7Uph-48" edge="1">
          <mxGeometry relative="1" as="geometry" />
        </mxCell>
        <mxCell id="unyrx_m22YV3mPMd7Uph-49" style="edgeStyle=orthogonalEdgeStyle;rounded=0;orthogonalLoop=1;jettySize=auto;html=1;strokeWidth=2;" parent="1" source="unyrx_m22YV3mPMd7Uph-48" target="unyrx_m22YV3mPMd7Uph-6" edge="1">
          <mxGeometry relative="1" as="geometry" />
        </mxCell>
        <mxCell id="unyrx_m22YV3mPMd7Uph-48" value="VPC Link" style="sketch=0;outlineConnect=0;fontColor=#232F3E;gradientColor=none;fillColor=#8C4FFF;strokeColor=none;dashed=0;verticalLabelPosition=bottom;verticalAlign=top;align=center;html=1;fontSize=12;fontStyle=0;aspect=fixed;pointerEvents=1;shape=mxgraph.aws4.endpoints;" parent="1" vertex="1">
          <mxGeometry x="-585.5" y="679" width="78" height="78" as="geometry" />
        </mxCell>
        <mxCell id="unyrx_m22YV3mPMd7Uph-59" value="Replica" style="sketch=0;outlineConnect=0;fontColor=#232F3E;gradientColor=none;fillColor=#C925D1;strokeColor=none;dashed=0;verticalLabelPosition=bottom;verticalAlign=top;align=center;html=1;fontSize=12;fontStyle=0;aspect=fixed;pointerEvents=1;shape=mxgraph.aws4.aurora_instance;" parent="1" vertex="1">
          <mxGeometry x="-484" y="990" width="78" height="78" as="geometry" />
        </mxCell>
        <mxCell id="unyrx_m22YV3mPMd7Uph-62" style="rounded=0;orthogonalLoop=1;jettySize=auto;html=1;strokeWidth=2;" parent="1" source="unyrx_m22YV3mPMd7Uph-60" target="unyrx_m22YV3mPMd7Uph-32" edge="1">
          <mxGeometry relative="1" as="geometry" />
        </mxCell>
        <mxCell id="unyrx_m22YV3mPMd7Uph-65" style="edgeStyle=orthogonalEdgeStyle;rounded=0;orthogonalLoop=1;jettySize=auto;html=1;dashed=1;strokeColor=#FF0000;strokeWidth=2;" parent="1" source="unyrx_m22YV3mPMd7Uph-60" target="unyrx_m22YV3mPMd7Uph-59" edge="1">
          <mxGeometry relative="1" as="geometry" />
        </mxCell>
        <mxCell id="unyrx_m22YV3mPMd7Uph-60" value="ECS Fargate" style="sketch=0;points=[[0,0,0],[0.25,0,0],[0.5,0,0],[0.75,0,0],[1,0,0],[0,1,0],[0.25,1,0],[0.5,1,0],[0.75,1,0],[1,1,0],[0,0.25,0],[0,0.5,0],[0,0.75,0],[1,0.25,0],[1,0.5,0],[1,0.75,0]];outlineConnect=0;fontColor=#232F3E;fillColor=#ED7100;strokeColor=#ffffff;dashed=0;verticalLabelPosition=bottom;verticalAlign=top;align=center;html=1;fontSize=12;fontStyle=0;aspect=fixed;shape=mxgraph.aws4.resourceIcon;resIcon=mxgraph.aws4.fargate;" parent="1" vertex="1">
          <mxGeometry x="-484" y="830" width="78" height="78" as="geometry" />
        </mxCell>
        <mxCell id="unyrx_m22YV3mPMd7Uph-6" value="NLB" style="outlineConnect=0;dashed=0;verticalLabelPosition=bottom;verticalAlign=top;align=center;html=1;shape=mxgraph.aws3.elastic_load_balancing;fillColor=#F58536;gradientColor=none;" parent="1" vertex="1">
          <mxGeometry x="-584" y="822.5" width="76.5" height="93" as="geometry" />
        </mxCell>
        <mxCell id="unyrx_m22YV3mPMd7Uph-4" value="API GW" style="outlineConnect=0;dashed=0;verticalLabelPosition=bottom;verticalAlign=top;align=center;html=1;shape=mxgraph.aws3.api_gateway;fillColor=#D9A741;gradientColor=none;" parent="1" vertex="1">
          <mxGeometry x="-584" y="549" width="76.5" height="93" as="geometry" />
        </mxCell>
        <mxCell id="unyrx_m22YV3mPMd7Uph-26" value="Internet" style="image;aspect=fixed;perimeter=ellipsePerimeter;html=1;align=center;shadow=0;dashed=0;spacingTop=3;image=img/lib/active_directory/internet_globe.svg;labelBackgroundColor=default;" parent="1" vertex="1">
          <mxGeometry x="-308.5" y="186.75" width="50" height="50" as="geometry" />
        </mxCell>
        <mxCell id="unyrx_m22YV3mPMd7Uph-67" style="edgeStyle=orthogonalEdgeStyle;rounded=0;orthogonalLoop=1;jettySize=auto;html=1;startArrow=classic;startFill=1;strokeWidth=2;" parent="1" source="unyrx_m22YV3mPMd7Uph-3" target="unyrx_m22YV3mPMd7Uph-4" edge="1">
          <mxGeometry relative="1" as="geometry">
            <Array as="points">
              <mxPoint x="-364" y="596" />
              <mxPoint x="-364" y="596" />
            </Array>
          </mxGeometry>
        </mxCell>
        <mxCell id="unyrx_m22YV3mPMd7Uph-69" style="edgeStyle=orthogonalEdgeStyle;rounded=0;orthogonalLoop=1;jettySize=auto;html=1;strokeWidth=2;" parent="1" source="unyrx_m22YV3mPMd7Uph-2" target="unyrx_m22YV3mPMd7Uph-4" edge="1">
          <mxGeometry relative="1" as="geometry" />
        </mxCell>
        <mxCell id="unyrx_m22YV3mPMd7Uph-68" style="edgeStyle=orthogonalEdgeStyle;rounded=1;orthogonalLoop=1;jettySize=auto;html=1;exitX=0.29;exitY=0.5;exitDx=0;exitDy=0;exitPerimeter=0;curved=0;strokeWidth=2;" parent="1" source="unyrx_m22YV3mPMd7Uph-1" target="unyrx_m22YV3mPMd7Uph-4" edge="1">
          <mxGeometry relative="1" as="geometry">
            <mxPoint x="-214" y="121" as="targetPoint" />
            <Array as="points">
              <mxPoint x="-634" y="212" />
              <mxPoint x="-634" y="596" />
            </Array>
          </mxGeometry>
        </mxCell>
        <mxCell id="unyrx_m22YV3mPMd7Uph-25" style="edgeStyle=orthogonalEdgeStyle;rounded=0;orthogonalLoop=1;jettySize=auto;html=1;strokeWidth=2;" parent="1" source="unyrx_m22YV3mPMd7Uph-1" target="unyrx_m22YV3mPMd7Uph-2" edge="1">
          <mxGeometry relative="1" as="geometry" />
        </mxCell>
        <mxCell id="unyrx_m22YV3mPMd7Uph-2" value="Cloudflare" style="image;aspect=fixed;html=1;points=[];align=center;fontSize=12;image=img/lib/azure2/networking/Web_Application_Firewall_Policies_WAF.svg;" parent="1" vertex="1">
          <mxGeometry x="-580.5" y="289" width="68" height="68" as="geometry" />
        </mxCell>
        <mxCell id="unyrx_m22YV3mPMd7Uph-1" value="&lt;span style=&quot;background-color: light-dark(#ffffff, var(--ge-dark-color, #121212));&quot;&gt;Route 53&lt;/span&gt;" style="outlineConnect=0;dashed=0;verticalLabelPosition=bottom;verticalAlign=top;align=center;html=1;shape=mxgraph.aws3.route_53;fillColor=#F58536;gradientColor=none;" parent="1" vertex="1">
          <mxGeometry x="-581" y="169" width="70.5" height="85.5" as="geometry" />
        </mxCell>
        <mxCell id="unyrx_m22YV3mPMd7Uph-39" value="IGW" style="sketch=0;outlineConnect=0;fontColor=#232F3E;gradientColor=none;fillColor=#8C4FFF;strokeColor=none;dashed=0;verticalLabelPosition=bottom;verticalAlign=top;align=center;html=1;fontSize=12;fontStyle=0;aspect=fixed;pointerEvents=1;shape=mxgraph.aws4.internet_gateway;" parent="1" vertex="1">
          <mxGeometry x="-584.75" y="391" width="78" height="78" as="geometry" />
        </mxCell>
        <mxCell id="unyrx_m22YV3mPMd7Uph-70" value="ACM" style="sketch=0;points=[[0,0,0],[0.25,0,0],[0.5,0,0],[0.75,0,0],[1,0,0],[0,1,0],[0.25,1,0],[0.5,1,0],[0.75,1,0],[1,1,0],[0,0.25,0],[0,0.5,0],[0,0.75,0],[1,0.25,0],[1,0.5,0],[1,0.75,0]];outlineConnect=0;fontColor=#232F3E;fillColor=#DD344C;strokeColor=#ffffff;dashed=0;verticalLabelPosition=bottom;verticalAlign=top;align=center;html=1;fontSize=12;fontStyle=0;aspect=fixed;shape=mxgraph.aws4.resourceIcon;resIcon=mxgraph.aws4.certificate_manager_3;" parent="1" vertex="1">
          <mxGeometry x="-324" y="725" width="78" height="78" as="geometry" />
        </mxCell>
        <mxCell id="unyrx_m22YV3mPMd7Uph-71" value="Cloudwatch" style="sketch=0;points=[[0,0,0],[0.25,0,0],[0.5,0,0],[0.75,0,0],[1,0,0],[0,1,0],[0.25,1,0],[0.5,1,0],[0.75,1,0],[1,1,0],[0,0.25,0],[0,0.5,0],[0,0.75,0],[1,0.25,0],[1,0.5,0],[1,0.75,0]];points=[[0,0,0],[0.25,0,0],[0.5,0,0],[0.75,0,0],[1,0,0],[0,1,0],[0.25,1,0],[0.5,1,0],[0.75,1,0],[1,1,0],[0,0.25,0],[0,0.5,0],[0,0.75,0],[1,0.25,0],[1,0.5,0],[1,0.75,0]];outlineConnect=0;fontColor=#232F3E;fillColor=#E7157B;strokeColor=#ffffff;dashed=0;verticalLabelPosition=bottom;verticalAlign=top;align=center;html=1;fontSize=12;fontStyle=0;aspect=fixed;shape=mxgraph.aws4.resourceIcon;resIcon=mxgraph.aws4.cloudwatch_2;" parent="1" vertex="1">
          <mxGeometry x="-322.5" y="830" width="78" height="78" as="geometry" />
        </mxCell>
        <mxCell id="unyrx_m22YV3mPMd7Uph-72" value="Cloudtrail" style="sketch=0;points=[[0,0,0],[0.25,0,0],[0.5,0,0],[0.75,0,0],[1,0,0],[0,1,0],[0.25,1,0],[0.5,1,0],[0.75,1,0],[1,1,0],[0,0.25,0],[0,0.5,0],[0,0.75,0],[1,0.25,0],[1,0.5,0],[1,0.75,0]];points=[[0,0,0],[0.25,0,0],[0.5,0,0],[0.75,0,0],[1,0,0],[0,1,0],[0.25,1,0],[0.5,1,0],[0.75,1,0],[1,1,0],[0,0.25,0],[0,0.5,0],[0,0.75,0],[1,0.25,0],[1,0.5,0],[1,0.75,0]];outlineConnect=0;fontColor=#232F3E;fillColor=#E7157B;strokeColor=#ffffff;dashed=0;verticalLabelPosition=bottom;verticalAlign=top;align=center;html=1;fontSize=12;fontStyle=0;aspect=fixed;shape=mxgraph.aws4.resourceIcon;resIcon=mxgraph.aws4.cloudtrail;" parent="1" vertex="1">
          <mxGeometry x="-322.5" y="939" width="78" height="78" as="geometry" />
        </mxCell>
        <mxCell id="unyrx_m22YV3mPMd7Uph-73" value="X-Ray" style="sketch=0;points=[[0,0,0],[0.25,0,0],[0.5,0,0],[0.75,0,0],[1,0,0],[0,1,0],[0.25,1,0],[0.5,1,0],[0.75,1,0],[1,1,0],[0,0.25,0],[0,0.5,0],[0,0.75,0],[1,0.25,0],[1,0.5,0],[1,0.75,0]];outlineConnect=0;fontColor=#232F3E;fillColor=#C925D1;strokeColor=#ffffff;dashed=0;verticalLabelPosition=bottom;verticalAlign=top;align=center;html=1;fontSize=12;fontStyle=0;aspect=fixed;shape=mxgraph.aws4.resourceIcon;resIcon=mxgraph.aws4.xray;" parent="1" vertex="1">
          <mxGeometry x="-322.5" y="1041" width="78" height="78" as="geometry" />
        </mxCell>
        <mxCell id="unyrx_m22YV3mPMd7Uph-74" value="Redis" style="outlineConnect=0;dashed=0;verticalLabelPosition=bottom;verticalAlign=top;align=center;html=1;shape=mxgraph.aws3.redis;fillColor=#2E73B8;gradientColor=none;" parent="1" vertex="1">
          <mxGeometry x="-572.5" y="990" width="60" height="63" as="geometry" />
        </mxCell>
        <mxCell id="unyrx_m22YV3mPMd7Uph-63" style="edgeStyle=orthogonalEdgeStyle;rounded=0;orthogonalLoop=1;jettySize=auto;html=1;strokeWidth=2;" parent="1" source="unyrx_m22YV3mPMd7Uph-9" target="unyrx_m22YV3mPMd7Uph-32" edge="1">
          <mxGeometry relative="1" as="geometry" />
        </mxCell>
        <mxCell id="unyrx_m22YV3mPMd7Uph-76" value="Secrets Manger" style="sketch=0;points=[[0,0,0],[0.25,0,0],[0.5,0,0],[0.75,0,0],[1,0,0],[0,1,0],[0.25,1,0],[0.5,1,0],[0.75,1,0],[1,1,0],[0,0.25,0],[0,0.5,0],[0,0.75,0],[1,0.25,0],[1,0.5,0],[1,0.75,0]];outlineConnect=0;fontColor=#232F3E;fillColor=#DD344C;strokeColor=#ffffff;dashed=0;verticalLabelPosition=bottom;verticalAlign=top;align=center;html=1;fontSize=12;fontStyle=0;aspect=fixed;shape=mxgraph.aws4.resourceIcon;resIcon=mxgraph.aws4.secrets_manager;" parent="1" vertex="1">
          <mxGeometry x="-230" y="725" width="78" height="78" as="geometry" />
        </mxCell>
        <mxCell id="unyrx_m22YV3mPMd7Uph-78" value="Parameter Store" style="sketch=0;outlineConnect=0;fontColor=#232F3E;gradientColor=none;fillColor=#E7157B;strokeColor=none;dashed=0;verticalLabelPosition=bottom;verticalAlign=top;align=center;html=1;fontSize=12;fontStyle=0;aspect=fixed;pointerEvents=1;shape=mxgraph.aws4.parameter_store;" parent="1" vertex="1">
          <mxGeometry x="-227" y="830" width="75" height="78" as="geometry" />
        </mxCell>
        <mxCell id="unyrx_m22YV3mPMd7Uph-80" value="Shield" style="outlineConnect=0;dashed=0;verticalLabelPosition=bottom;verticalAlign=top;align=center;html=1;shape=mxgraph.aws3.shield;fillColor=#759C3E;gradientColor=none;" parent="1" vertex="1">
          <mxGeometry x="-230" y="549" width="76.5" height="70.5" as="geometry" />
        </mxCell>
        <mxCell id="unyrx_m22YV3mPMd7Uph-82" style="edgeStyle=orthogonalEdgeStyle;rounded=1;orthogonalLoop=1;jettySize=auto;html=1;entryX=0.5;entryY=0;entryDx=0;entryDy=0;entryPerimeter=0;strokeWidth=2;startArrow=classic;startFill=1;curved=0;" parent="1" source="unyrx_m22YV3mPMd7Uph-80" target="unyrx_m22YV3mPMd7Uph-3" edge="1">
          <mxGeometry relative="1" as="geometry">
            <Array as="points">
              <mxPoint x="-192" y="511" />
              <mxPoint x="-286" y="511" />
            </Array>
          </mxGeometry>
        </mxCell>
        <mxCell id="unyrx_m22YV3mPMd7Uph-84" value="S3" style="sketch=0;outlineConnect=0;fontColor=#232F3E;gradientColor=none;fillColor=#7AA116;strokeColor=none;dashed=0;verticalLabelPosition=bottom;verticalAlign=top;align=center;html=1;fontSize=12;fontStyle=0;aspect=fixed;pointerEvents=1;shape=mxgraph.aws4.bucket_with_objects;" parent="1" vertex="1">
          <mxGeometry x="-230" y="939" width="75" height="78" as="geometry" />
        </mxCell>
        <mxCell id="unyrx_m22YV3mPMd7Uph-85" value="Arquitectura To Be" style="outlineConnect=0;gradientColor=none;html=1;whiteSpace=wrap;fontSize=12;fontStyle=0;strokeColor=#879196;fillColor=none;verticalAlign=top;align=left;fontColor=#879196;dashed=1;spacingTop=3;" parent="1" vertex="1">
          <mxGeometry x="-780" y="150" width="650" height="1010" as="geometry" />
        </mxCell>
        <mxCell id="Gyt9itAlrpS5xvGx9NC2-1" value="IAM" style="outlineConnect=0;dashed=0;verticalLabelPosition=bottom;verticalAlign=top;align=center;html=1;shape=mxgraph.aws3.iam;fillColor=#759C3E;gradientColor=none;" vertex="1" parent="1">
          <mxGeometry x="-213.5" y="1039.5" width="42" height="81" as="geometry" />
        </mxCell>
      </root>
    </mxGraphModel>
  </diagram>
</mxfile>
